Coordinates
version=1
nRows=31
nColumns=38
inDegrees=no

Units are S.I. units (second, meters, Newtons, ...)
If the header above contains a line with 'inDegrees', this indicates whether rotational values are in degrees (yes) or radians (no).

endheader
time	pelvis_tilt	pelvis_list	pelvis_rotation	pelvis_tx	pelvis_ty	pelvis_tz	hip_flexion_r	hip_adduction_r	hip_rotation_r	knee_angle_r	ankle_angle_r	subtalar_angle_r	mtp_angle_r	hip_flexion_l	hip_adduction_l	hip_rotation_l	knee_angle_l	ankle_angle_l	subtalar_angle_l	mtp_angle_l	lumbar_extension	lumbar_bending	lumbar_rotation	arm_flex_r	arm_add_r	arm_rot_r	elbow_flex_r	pro_sup_r	wrist_flex_r	wrist_dev_r	arm_flex_l	arm_add_l	arm_rot_l	elbow_flex_l	pro_sup_l	wrist_flex_l	wrist_dev_l
1.12	2.36721	1.38978	-0.752596	0.744813	0.332803	0.995464	0.261231	0.041812	-0.413721	0.361665	-0.0383052	0	0	-0.334587	-0.163766	-0.195695	0.35291	0.26244	0	0	-0.356697	0.137595	0.0183774	-0.115358	-0.226978	0.0638835	0.479965	1.34623	0	0	0.0303715	-0.233679	0.348603	0.34317	1.34678	0	0
1.13	2.36615	1.38676	-0.748245	0.746603	0.344337	0.996157	0.261488	0.0403001	-0.414181	0.389319	-0.0379806	0	0	-0.33053	-0.173659	-0.195304	0.383481	0.247138	0	0	-0.351799	0.141558	0.0129234	-0.121628	-0.22476	0.0568472	0.482039	1.35197	0	0	0.0226466	-0.232462	0.34252	0.340805	1.34967	0	0
1.14	2.34748	1.38193	-0.728143	0.748728	0.355466	0.997138	0.262526	0.0379026	-0.434899	0.419074	-0.0379652	0	0	-0.320562	-0.188497	-0.197865	0.42215	0.229772	0	0	-0.347012	0.148279	0.0101696	-0.124911	-0.222471	0.0505821	0.480418	1.35825	0	0	0.0170086	-0.231068	0.337772	0.336734	1.35242	0	0
1.15	2.33559	1.38258	-0.712876	0.750831	0.366682	0.997669	0.26089	0.0382769	-0.437271	0.434823	-0.0343864	0	0	-0.30273	-0.199179	-0.194675	0.46733	0.211098	0	0	-0.337565	0.149612	0.0039939	-0.128323	-0.218534	0.0450422	0.476427	1.36494	0	0	0.0109302	-0.232068	0.335012	0.332351	1.35503	0	0
1.16	2.31011	1.3834	-0.682828	0.753049	0.377623	0.998185	0.257286	0.0429898	-0.438374	0.441969	-0.0258022	0	0	-0.277814	-0.212222	-0.187849	0.518654	0.188051	0	0	-0.326085	0.152362	-0.0023227	-0.130284	-0.213361	0.0352594	0.468998	1.37983	0	0	0.00624719	-0.233888	0.333919	0.327265	1.35897	0	0
1.17	2.29131	1.38619	-0.657701	0.755112	0.388383	0.998559	0.24776	0.0563466	-0.410646	0.430511	-0.0157908	0	0	-0.249247	-0.221691	-0.173898	0.572035	0.160206	0	0	-0.314017	0.152757	-0.00983581	-0.132898	-0.207952	0.0245674	0.462597	1.39789	0	0	0.0017892	-0.238085	0.33935	0.325451	1.35758	0	0
1.18	2.25877	1.38472	-0.618421	0.757092	0.398633	0.999187	0.240635	0.0653987	-0.412716	0.429854	-0.00567672	0	0	-0.217894	-0.235371	-0.156993	0.628501	0.129037	0	0	-0.304109	0.158741	-0.0153551	-0.135996	-0.205791	0.0222265	0.460648	1.40227	0	0	-0.000577403	-0.241272	0.345475	0.32391	1.35446	0	0
1.19	2.22058	1.38196	-0.572665	0.758799	0.408571	0.999734	0.232767	0.0762434	-0.416212	0.425597	0.000345827	0	0	-0.182955	-0.24891	-0.135449	0.687689	0.0970506	0	0	-0.294184	0.167101	-0.0200746	-0.14015	-0.205251	0.0196451	0.461047	1.40709	0	0	-0.0023048	-0.244745	0.357992	0.324974	1.34564	0	0
1.2	2.18157	1.37785	-0.526152	0.76029	0.418166	1.00025	0.224204	0.0879411	-0.420593	0.419403	0.00632128	0	0	-0.146038	-0.261024	-0.110457	0.747793	0.0632701	0	0	-0.285245	0.177109	-0.0234781	-0.145183	-0.206415	0.0188977	0.464167	1.40916	0	0	-0.00346055	-0.247964	0.372123	0.328572	1.3337	0	0
1.21	2.14921	1.37416	-0.487603	0.761643	0.427428	1.00072	0.216463	0.0979206	-0.423402	0.415789	0.0144295	0	0	-0.108837	-0.269288	-0.0845098	0.80731	0.0301262	0	0	-0.277782	0.185933	-0.0252245	-0.150138	-0.208281	0.0182876	0.468535	1.4096	0	0	-0.0039459	-0.250301	0.382064	0.33291	1.32489	0	0
1.22	2.12034	1.37062	-0.452705	0.762833	0.43642	1.00116	0.209087	0.10689	-0.425505	0.412742	0.0231907	0	0	-0.0709527	-0.27489	-0.0575117	0.866139	-0.00134109	0	0	-0.271078	0.194338	-0.0264289	-0.15514	-0.210497	0.0177111	0.474169	1.40864	0	0	-0.00452218	-0.252599	0.392538	0.339293	1.31525	0	0
1.23	2.10181	1.36795	-0.429055	0.763976	0.445217	1.00167	0.200789	0.113638	-0.426896	0.410564	0.0321962	0	0	-0.0350729	-0.277077	-0.0324714	0.922238	-0.0287555	0	0	-0.266291	0.200514	-0.0266941	-0.159247	-0.21208	0.0169096	0.478596	1.40674	0	0	-0.00501311	-0.254505	0.39921	0.346381	1.30915	0	0
1.24	2.10062	1.36328	-0.419177	0.765613	0.453637	1.0025	0.195636	0.121945	-0.43971	0.421327	0.0353888	0	0	-0.00151114	-0.288064	-0.0119833	0.974498	-0.04245	0	0	-0.265842	0.206267	-0.0269385	-0.162445	-0.212083	0.0169934	0.481068	1.40435	0	0	-0.00314658	-0.25713	0.405694	0.35375	1.30286	0	0
1.25	2.09593	1.36195	-0.410977	0.766808	0.46214	1.00319	0.185194	0.12658	-0.440028	0.418806	0.0439826	0	0	0.0304673	-0.287747	0.00730885	1.02441	-0.0443731	0	0	-0.263686	0.209041	-0.0261803	-0.163299	-0.212464	0.0178807	0.480909	1.40211	0	0	-0.00366864	-0.258575	0.410681	0.360992	1.29721	0	0
1.26	2.09873	1.36038	-0.412197	0.768085	0.470582	1.00414	0.171313	0.132242	-0.437356	0.412271	0.0514555	0	0	0.0588003	-0.28668	0.0220468	1.07016	-0.0343548	0	0	-0.263568	0.210656	-0.02379	-0.162	-0.212165	0.0189212	0.477543	1.39988	0	0	-0.00373149	-0.259099	0.414115	0.36659	1.29254	0	0
1.27	2.11067	1.35871	-0.423822	0.769397	0.478941	1.00536	0.153883	0.138216	-0.433325	0.40225	0.0575289	0	0	0.0831712	-0.284875	0.0329009	1.10992	-0.0203496	0	0	-0.265873	0.210995	-0.0207366	-0.157959	-0.211282	0.0208723	0.470309	1.39749	0	0	-0.00334915	-0.258979	0.416009	0.370842	1.2876	0	0
1.28	2.12692	1.35766	-0.440938	0.770725	0.487146	1.0067	0.135045	0.143654	-0.428305	0.390432	0.06211	0	0	0.10512	-0.281892	0.0407687	1.14343	-0.00828812	0	0	-0.269392	0.209851	-0.0172944	-0.151072	-0.209981	0.0237302	0.458963	1.3966	0	0	-0.00243802	-0.258408	0.414734	0.373924	1.28576	0	0
1.29	2.14349	1.35747	-0.459328	0.772097	0.495199	1.00804	0.116391	0.148251	-0.423254	0.378052	0.0651994	0	0	0.12625	-0.277258	0.0475527	1.1715	0.00035968	0	0	-0.27316	0.207435	-0.013736	-0.141796	-0.208278	0.027294	0.444371	1.3962	0	0	-0.000747732	-0.257285	0.411149	0.37525	1.28662	0	0
1.3	2.15988	1.35781	-0.478549	0.773509	0.503155	1.00931	0.0981262	0.152041	-0.418933	0.36562	0.0673052	0	0	0.146618	-0.270827	0.0546433	1.19439	0.00616586	0	0	-0.277082	0.204163	-0.00991118	-0.130914	-0.206527	0.03217	0.427751	1.39543	0	0	0.00164117	-0.255687	0.406083	0.374536	1.28957	0	0
1.31	2.17496	1.36562	-0.497654	0.774886	0.511021	1.00985	0.0853391	0.150264	-0.401402	0.355525	0.0724708	0	0	0.169791	-0.255792	0.0610736	1.21303	0.011507	0	0	-0.276386	0.19367	-0.00748971	-0.120575	-0.204268	0.0383283	0.411545	1.39427	0	0	0.00335291	-0.255432	0.401974	0.373949	1.29228	0	0
1.32	2.18628	1.36029	-0.512804	0.776277	0.518657	1.01135	0.0654516	0.157247	-0.407406	0.343337	0.070458	0	0	0.186814	-0.256374	0.0657662	1.22519	0.0136964	0	0	-0.28426	0.196268	-0.00102738	-0.107252	-0.204515	0.0460069	0.393526	1.39293	0	0	0.00931751	-0.252038	0.396739	0.369645	1.29704	0	0
1.33	2.1947	1.36903	-0.52619	0.77755	0.526215	1.01142	0.0577191	0.15343	-0.391014	0.339191	0.0766079	0	0	0.210633	-0.242024	0.0692281	1.23406	0.0153181	0	0	-0.282573	0.185911	0.00235616	-0.0975207	-0.20367	0.053167	0.380036	1.39149	0	0	0.0134876	-0.251917	0.395717	0.366837	1.30024	0	0
1.34	2.198	1.37221	-0.534761	0.778816	0.533607	1.01187	0.0476089	0.1535	-0.385536	0.333877	0.0792229	0	0	0.232155	-0.23492	0.0703248	1.23809	0.0160766	0	0	-0.284302	0.181467	0.00813031	-0.0879051	-0.204103	0.0603828	0.368381	1.38872	0	0	0.0193983	-0.250897	0.396134	0.363637	1.30319	0	0
1.35	2.20582	1.37538	-0.54773	0.779966	0.54099	1.0123	0.0367665	0.15288	-0.379435	0.32859	0.0820623	0	0	0.252098	-0.227859	0.069241	1.23819	0.0160474	0	0	-0.286998	0.176714	0.0138221	-0.079923	-0.204952	0.0673561	0.360326	1.3849	0	0	0.0254382	-0.250389	0.397289	0.361591	1.30557	0	0
1.36	2.2142	1.37862	-0.561586	0.781075	0.548326	1.01269	0.0259564	0.152115	-0.37162	0.32332	0.0850318	0	0	0.271012	-0.221241	0.0677631	1.23404	0.0163937	0	0	-0.289988	0.171883	0.0198118	-0.0735407	-0.206161	0.0732858	0.355989	1.38113	0	0	0.0316256	-0.250458	0.400333	0.36063	1.30667	0	0
1.37	2.22344	1.38158	-0.576367	0.782145	0.555608	1.01307	0.014686	0.151511	-0.362902	0.317411	0.0877229	0	0	0.288704	-0.215109	0.0660911	1.2252	0.0165867	0	0	-0.293552	0.1672	0.0256764	-0.0681633	-0.207564	0.0780039	0.354797	1.37709	0	0	0.0372984	-0.251118	0.404351	0.361686	1.30646	0	0
1.38	2.24418	1.37292	-0.600773	0.783142	0.562918	1.01456	-0.0134096	0.162403	-0.357453	0.293476	0.0810119	0	0	0.296264	-0.219452	0.0659473	1.20994	0.0165624	0	0	-0.307457	0.171747	0.0325531	-0.0629742	-0.211947	0.0936445	0.358959	1.35717	0	0	0.0444065	-0.251626	0.415481	0.363862	1.29587	0	0
1.39	2.25801	1.38509	-0.622055	0.784155	0.570001	1.0141	-0.0136027	0.151314	-0.345297	0.300841	0.0920268	0	0	0.315937	-0.204457	0.0602366	1.19398	0.0185324	0	0	-0.30596	0.158138	0.0362294	-0.059176	-0.212626	0.0979788	0.360991	1.35432	0	0	0.0478749	-0.253815	0.418894	0.366762	1.29347	0	0
1.4	2.28651	1.3767	-0.65566	0.785113	0.577134	1.01571	-0.0432135	0.160499	-0.337878	0.276276	0.0853239	0	0	0.31874	-0.208235	0.0563376	1.17054	0.0217048	0	0	-0.322428	0.160752	0.0429111	-0.0529663	-0.216236	0.108788	0.365166	1.34074	0	0	0.053897	-0.255318	0.431671	0.371746	1.2764	0	0
1.41	2.31079	1.37831	-0.685053	0.785958	0.584231	1.0163	-0.0586192	0.159018	-0.328294	0.267541	0.0873054	0	0	0.327627	-0.20342	0.0502306	1.14509	0.025358	0	0	-0.330424	0.155268	0.0454436	-0.0468342	-0.216788	0.10966	0.366807	1.33908	0	0	0.057868	-0.25647	0.43381	0.374539	1.27278	0	0
1.42	2.34295	1.37977	-0.721242	0.786714	0.59137	1.01692	-0.075675	0.156486	-0.320227	0.257621	0.0898886	0	0	0.333834	-0.198167	0.0428771	1.11564	0.0286389	0	0	-0.339348	0.14898	0.0461675	-0.0401962	-0.216799	0.109839	0.368264	1.33843	0	0	0.0616027	-0.257706	0.435468	0.377007	1.26867	0	0
